<?xml version="1.0" encoding="UTF-8" standalone="no"?>
<!-- Generator: Adobe Illustrator 21.1.0, SVG Export Plug-In . SVG Version: 6.00 Build 0)  -->

<svg
   xmlns:dc="http://purl.org/dc/elements/1.1/"
   xmlns:cc="http://creativecommons.org/ns#"
   xmlns:rdf="http://www.w3.org/1999/02/22-rdf-syntax-ns#"
   xmlns:svg="http://www.w3.org/2000/svg"
   xmlns="http://www.w3.org/2000/svg"
   xmlns:sodipodi="http://sodipodi.sourceforge.net/DTD/sodipodi-0.dtd"
   xmlns:inkscape="http://www.inkscape.org/namespaces/inkscape"
   sodipodi:docname="panda-2.svg"
   inkscape:version="0.91 r13725"
   xml:space="preserve"
   viewBox="0 0 287.02685 283.46457"
   y="0px"
   x="0px"
   id="Layer_1"
   version="1.1"
   width="287.02686"
   height="283.46457"><defs
     id="defs4274" /><sodipodi:namedview
     inkscape:current-layer="Layer_1"
     inkscape:window-maximized="1"
     inkscape:window-y="-8"
     inkscape:window-x="-8"
     inkscape:cy="120.88957"
     inkscape:cx="-17.217927"
     inkscape:zoom="1.9875"
     showgrid="false"
     id="namedview4272"
     inkscape:window-height="1137"
     inkscape:window-width="1920"
     inkscape:pageshadow="2"
     inkscape:pageopacity="0"
     guidetolerance="10"
     gridtolerance="10"
     objecttolerance="10"
     borderopacity="1"
     bordercolor="#666666"
     pagecolor="#ffffff"
     fit-margin-top="0"
     fit-margin-left="0"
     fit-margin-right="0"
     fit-margin-bottom="0" /><style
     type="text/css"
     id="style4234">
	.st0{fill:#C9C7C7;}
	.st1{fill:#9B999A;}
	.st2{fill:#010000;}
	.st3{fill:#FFFFFF;}
	.st4{fill:#5E5D5D;}
</style><path
     style="fill:#c9c7c7"
     inkscape:connector-curvature="0"
     id="path4240"
     d="M 140.51976,8.5204459 C 111.80437,13.247736 49.060272,54.425996 49.060272,54.425996 L 9.4056871,158.89532 c -1.8362221,4.80543 -0.3906855,9.49366 2.5394569,14.06468 5.235186,7.5793 11.017333,14.29909 17.385507,19.96403 l 10.079687,-13.55678 14.650709,20.82354 c 2.383182,8.24346 7.813712,14.68977 15.314875,19.88589 l -0.742303,-12.65821 c 19.964033,8.51694 39.693651,25.51177 50.281231,59.03259 13.20517,10.39224 40.59223,12.34566 60.98602,0.78137 3.43803,-27.30892 27.46519,-49.14824 42.58472,-55.24294 l 7.50117,9.88435 c 0.15627,0.19534 0.42975,0.19534 0.54696,0 l 20.51099,-26.95731 c 0.1172,-0.1172 0.31255,-0.15627 0.39068,0 l 11.48616,12.54101 c 6.56352,-9.84528 11.56429,-25.51177 15.47115,-45.20232 0,0 -33.20827,-99.976444 -38.01371,-104.781874 -4.68822,-4.68823 -58.48563,-38.59974 -93.8036,-48.6012901 -1.95343,-0.54696 -4.02406,-0.70323 -6.05563,-0.35161 z"
     class="st0" /><g
     id="g4883"
     inkscape:label="Outline"
     transform="matrix(0.39068557,0,0,0.39068557,-226.88095,-63.404774)"><path
       class="st2"
       d="m 1120.6,227 c 18.6,-14.4 61.9,-43.3 72.9,-45.2 l 66.5,47 c 13.1,56 8.9,100.9 -8.4,136.2 l 4.9,10.7 -5.8,11.4 64.7,190.1 c -16.5,69.6 -32.8,129.6 -60.4,150.4 L 1226.8,696 c -0.6,-0.6 -1.5,-0.6 -2,0 -19.5,26.7 -38.4,50.9 -55.2,67.8 -0.6,0.6 -1.6,0.6 -2.1,-0.1 l -20.4,-28.2 c -1.1,-1.5 -3.2,-1.9 -4.8,-0.8 -55.5,38.4 -77.4,78 -79.6,123.1 -63.2,42.5 -145.6,36.6 -189.3,3 -3.3,-1.9 -5.5,-5.1 -6.7,-8.7 -15.1,-44 -37.4,-84.9 -86.2,-121.1 l 0.4,28.3 c -38.8,-12.4 -65.4,-35.8 -78.6,-71.2 l -19,-27.8 c -0.9,-1.3 -2.9,-1.4 -3.8,0 l -20.1,28.6 c -42.2,-38.1 -80.6,-76 -78.6,-111.8 1.4,-19.9 39.6,-111.3 67.6,-183.1 -5.7,-9 -10.4,-20.4 -14,-34.9 l 5.6,-8.4 c -10.7,-42.8 -10.9,-82.9 0,-120.2 l 63.2,-47.2 c 24.5,14.7 49.3,29.3 65.5,43.5 6.2,5.1 11.9,6.9 16.7,3.7 10.6,-15.9 136,-69 163.2,-68.2 30.9,0.9 155.3,65.3 163,68.2 0.7,0.8 4.5,0 9,-3.5 z m -362,499 c -118.58321,107.89855 -59.29161,53.94927 0,0 z"
       id="path4246"
       inkscape:connector-curvature="0"
       style="fill:#010000"
       sodipodi:nodetypes="cccccccccccccccccccccccccccccccccccc" /></g><g
     id="g4183"
     inkscape:label="Cu"><path
       id="path4254"
       d="m 142.0332,98.388672 c -5.23898,-0.01496 -10.11357,0.658914 -14.52343,2.333988 -0.85951,0.31255 -1.64054,0.82021 -2.26563,1.44531 -6.32911,6.29003 -7.77571,13.08748 -5.66602,15.70508 l 5.23633,4.02343 c 0.39069,0.27348 0.85931,0.35159 1.32813,0.19532 l 3.00781,-1.64063 c 0.82044,-0.31255 1.71863,-0.27351 2.5,0.15625 l 9.80664,5.70508 c 8.51694,3.20363 12.73749,-1.4076 17.93359,-5.27539 0.23443,-0.19534 0.54683,-0.3125 0.85938,-0.3125 l 10.82227,-0.50781 c 0.23441,0 0.39062,-0.19528 0.39062,-0.39063 0.39068,-8.86856 -0.93888,-12.03273 -4.72851,-15.08008 -0.0391,-1.09392 -0.74206,-1.40612 -1.60157,-2.22656 -0.31255,-0.39068 -0.0779,-1.44532 -1.28906,-1.32812 -7.73557,-1.626237 -15.07471,-2.783509 -21.81055,-2.802738 z m 23.91992,18.468748 c 0.31255,0 0.54688,0.19526 0.54688,0.50781 0,0.15627 -0.15623,0.27345 -0.27344,0.23438 -0.54696,-0.11721 -1.13273,0.0391 -1.71875,0.3125 l -2.14843,1.28906 c 0,0 -0.97663,0.27355 -0.54688,-0.42969 0.15628,-0.27348 0.93742,-0.82027 1.44531,-1.09375 0.11721,-0.0781 0.0391,-0.23438 -0.0781,-0.19531 -3.04734,0.15628 -5.00169,1.44493 -6.68164,3.90625 -0.66416,1.09392 -1.21098,0.74234 -0.9375,-0.0391 1.40646,-3.24269 3.71221,-4.33593 8.08789,-4.375 l 0.27344,0 2.03124,-0.11719 z m -37.62304,0.23438 c 3.28176,0.19534 7.07223,3.04682 7.30664,3.35937 0.19534,0.31252 0.0392,0.78131 -0.625,0.35156 -1.01578,-0.93765 -6.01719,-4.219 -8.51758,-2.65625 -0.70323,0.54699 0.62488,0.74221 1.40625,0.625 1.52364,-0.31255 1.99225,0.23434 1.5625,0.50782 -0.85951,0.5079 -3.71079,0.0391 -4.60937,-0.11719 -0.15627,0 -0.23435,-0.15623 -0.15625,-0.3125 0.27348,-0.54696 1.13242,-1.60154 3.63281,-1.75781 z"
       style="fill:#5e5d5d"
       inkscape:connector-curvature="0" /><path
       class="st4"
       d="m 147.39583,186.39959 c 0,0 2.53945,0.8595 1.01578,3.78965 -1.52367,2.93014 -4.76636,7.54023 -3.78965,12.34566 0.97671,4.80543 1.56274,11.6815 0.6251,12.77542 -1.48461,-4.8445 -3.39897,-9.45459 -4.7273,-11.83778 -0.66416,-1.17205 -0.89858,-2.53945 -0.66416,-3.86778 l 0.93764,-5.50867 c 0.19534,-1.09392 -0.19534,-2.18784 -1.01578,-2.93014 -2.77387,-2.42225 -4.53195,-5.19612 -5.43053,-8.3216 l 13.0489,3.55524 z"
       id="path4160"
       inkscape:connector-curvature="0"
       style="fill:#5e5d5d" /><path
       id="path4242"
       d="M 47.263672,58.175781 6.7089844,162.88086 c 1.8362222,19.53428 12.3851186,20.39267 22.6992186,32.38672 l 10.197266,-13.67383 c 7.930917,18.67477 17.933518,34.53725 31.021484,46.29687 l -0.15625,-18.05078 c 21.448638,12.18939 36.606587,28.56064 42.076177,53.13477 l 5.54687,4.57031 C 117.664,249.925 113.01614,230.82146 97.115234,210.81836 c -0.54696,-0.70323 -2.892438,-3.86917 -3.791015,-3.94727 l -6.25,-0.27343 c -1.406468,-0.0781 -2.734224,-0.74203 -3.710938,-1.79688 l -13.048828,-14.33789 -5.822265,6.67969 -8.166016,-28.5586 -8.75,1.32813 1.601562,-8.86719 -9.884765,-1.01758 c -2.578524,-8.3216 -2.500611,-16.52593 1.445312,-25.6289 2.812936,-6.87607 3.400306,-25.27688 3.947266,-40.904299 l 1.015625,-1.015625 c -0.898577,-11.09547 -0.234653,-22.582165 1.5625,-34.302735 z m 196.552738,3.712891 0.66406,40.123048 1.75976,0.50781 c 0.54696,15.62743 0.81989,32.30948 3.63282,39.22461 3.94593,9.10298 4.64883,17.77606 2.10937,26.09766 l -10.27539,0.85937 1.48438,8.94727 -8.16407,-0.89844 -8.20507,27.77734 -6.05665,-6.64257 -12.46289,13.79296 c -0.97672,1.05485 -2.30446,1.71874 -3.71093,1.79688 l -6.28907,0.46875 c -0.89858,0.0781 -1.71866,0.50771 -2.26562,1.17187 -15.86183,19.96404 -22.5429,38.52071 -23.01172,56.14063 l 7.73438,-3.00781 c 5.4696,-24.57412 19.61386,-42.4278 41.0625,-54.61719 l 8.59375,10.35352 21.09765,-27.23243 11.21289,13.24414 c 10.3141,-11.99404 15.62667,-28.47938 17.46289,-48.05273 L 243.81641,61.888672 Z"
       style="fill:#9b999a"
       inkscape:connector-curvature="0" /></g><g
     id="g4824"
     inkscape:label="Mask"><path
       class="st3"
       d="m 211.85895,107.01228 c -2.81294,0 -10.35317,0.93764 -16.99483,2.77387 -8.08719,2.34411 -12.65821,5.66494 -14.18188,6.87606 -0.23441,0.19534 -0.15628,0.58603 0.15627,0.6251 1.83622,0.31255 7.26675,0.50789 15.31488,-1.13299 8.20439,-1.67995 13.94747,-6.48538 15.97904,-8.43881 0.31254,-0.19534 0.1172,-0.70323 -0.27348,-0.70323 z"
       id="path4250"
       inkscape:connector-curvature="0"
       style="fill:#ffffff" /><path
       style="fill:#5e5d5d"
       inkscape:connector-curvature="0"
       id="path4264"
       d="m 147.39583,186.39959 c 0,0 2.53945,0.8595 1.01578,3.78965 -1.52367,2.93014 -4.76636,7.54023 -3.78965,12.34566 0.97671,4.80543 1.56274,11.6815 0.6251,12.77542 -1.48461,-4.8445 -3.39897,-9.45459 -4.7273,-11.83778 -0.66416,-1.17205 -0.89858,-2.53945 -0.66416,-3.86778 l 0.93764,-5.50867 c 0.19534,-1.09392 -0.19534,-2.18784 -1.01578,-2.93014 -2.77387,-2.42225 -4.53195,-5.19612 -5.43053,-8.3216 l 13.0489,3.55524 z"
       class="st4" /><path
       class="st3"
       d="m 78.244484,104.27748 c 2.031565,1.95343 7.774643,6.75886 15.97904,8.43881 8.048116,1.64088 13.517716,1.44553 15.314876,1.13298 0.31254,-0.0391 0.39068,-0.42975 0.15627,-0.62509 -1.52367,-1.21113 -6.0947,-4.53195 -14.181884,-6.87607 -6.641654,-1.83622 -14.142817,-2.77387 -16.994822,-2.77387 -0.351617,-0.0781 -0.54696,0.42976 -0.27348,0.70324 z"
       id="path4252"
       inkscape:connector-curvature="0"
       style="fill:#ffffff" /><path
       inkscape:connector-curvature="0"
       style="fill:#5e5d5d"
       d="m 142.0332,98.388672 c -5.23898,-0.01496 -10.11357,0.658914 -14.52343,2.333988 -0.85951,0.31255 -1.64054,0.82021 -2.26563,1.44531 -6.32911,6.29003 -7.77571,13.08748 -5.66602,15.70508 l 5.23633,4.02343 c 0.39069,0.27348 0.85931,0.35159 1.32813,0.19532 l 3.00781,-1.64063 c 0.82044,-0.31255 1.71863,-0.27351 2.5,0.15625 l 9.80664,5.70508 c 8.51694,3.20363 12.73749,-1.4076 17.93359,-5.27539 0.23443,-0.19534 0.54683,-0.3125 0.85938,-0.3125 l 10.82227,-0.50781 c 0.23441,0 0.39062,-0.19528 0.39062,-0.39063 0.39068,-8.86856 -0.93888,-12.03273 -4.72851,-15.08008 -0.0391,-1.09392 -0.74206,-1.40612 -1.60157,-2.22656 -0.31255,-0.39068 -0.0779,-1.44532 -1.28906,-1.32812 -7.73557,-1.626237 -15.07471,-2.783509 -21.81055,-2.802738 z m 23.91992,18.468748 c 0.31255,0 0.54688,0.19526 0.54688,0.50781 0,0.15627 -0.15623,0.27345 -0.27344,0.23438 -0.54696,-0.11721 -1.13273,0.0391 -1.71875,0.3125 l -2.14843,1.28906 c 0,0 -0.97663,0.27355 -0.54688,-0.42969 0.15628,-0.27348 0.93742,-0.82027 1.44531,-1.09375 0.11721,-0.0781 0.0391,-0.23438 -0.0781,-0.19531 -3.04734,0.15628 -5.00169,1.44493 -6.68164,3.90625 -0.66416,1.09392 -1.21098,0.74234 -0.9375,-0.0391 1.40646,-3.24269 3.71221,-4.33593 8.08789,-4.375 l 0.27344,0 2.03124,-0.11719 z m -37.62304,0.23438 c 3.28176,0.19534 7.07223,3.04682 7.30664,3.35937 0.19534,0.31252 0.0392,0.78131 -0.625,0.35156 -1.01578,-0.93765 -6.01719,-4.219 -8.51758,-2.65625 -0.70323,0.54699 0.62488,0.74221 1.40625,0.625 1.52364,-0.31255 1.99225,0.23434 1.5625,0.50782 -0.85951,0.5079 -3.71079,0.0391 -4.60937,-0.11719 -0.15627,0 -0.23435,-0.15623 -0.15625,-0.3125 0.27348,-0.54696 1.13242,-1.60154 3.63281,-1.75781 z"
       id="path4818" /></g><g
     id="g4175"
     inkscape:label="SilkS"><path
       id="path4163"
       d="m 143.19531,8.3398438 c -0.38174,-0.01315 -0.76373,-0.00992 -1.14648,0.00977 -0.51034,0.02625 -1.02141,0.082017 -1.5293,0.1699218 C 111.80414,13.246821 49.060547,54.425781 49.060547,54.425781 l -2.017578,5.316407 c 0.07569,-0.522411 0.140455,-1.043049 0.220703,-1.566407 L 6.7089844,162.88086 c 1.8362222,19.53428 12.3851186,20.39267 22.6992186,32.38672 l 10.197266,-13.67383 c 7.930917,18.67477 17.933518,34.53727 31.021484,46.29687 l -0.15625,-18.05078 c 21.448638,12.18939 36.606587,28.56064 42.076177,53.13477 l 5.54687,4.57031 c -0.0337,-1.3807 -0.10254,-2.77323 -0.19141,-4.17187 0.34658,1.01045 0.68255,2.03596 1.01172,3.07812 11.77707,9.26835 34.83204,11.81566 54.14844,4.05664 -0.009,0.24893 -0.0305,0.4995 -0.0371,0.74805 l 7.73438,-3.00781 c 5.4696,-24.57412 19.61386,-42.4278 41.0625,-54.61719 l 8.59375,10.35352 21.09765,-27.23243 11.21289,13.24414 c 10.3141,-11.99404 15.62667,-28.47938 17.46289,-48.05273 l -36.37304,-100.054688 0.043,2.609375 c -1.57988,-3.766538 -2.81822,-6.363139 -3.48047,-7.025391 -4.68822,-4.68823 -58.48477,-38.600012 -93.80274,-48.6015622 -1.0988,-0.3076654 -2.23562,-0.4918022 -3.38086,-0.53125 z M 98.130859,78.882812 c 12.970761,4.571022 18.243711,10.197782 21.017581,19.457032 0.0391,0.1172 0.19529,0.195327 0.3125,0.117187 l 2.93164,-2.892578 c 0.11721,-0.11721 0.15623,-0.31248 0.0391,-0.46875 l -6.87695,-10.822265 c -0.15627,-0.312551 0.31243,-0.664133 0.70312,-0.195313 3.00828,3.90686 6.36877,8.323229 8.79102,14.730469 0.85951,-3.4771 -0.42928,-6.251558 -3.00781,-8.830078 -0.27348,-0.27348 -5e-5,-0.58593 0.27343,-0.625 1.28927,0.42975 4.80489,4.493283 3.55469,10.001953 12.54101,-4.41475 25.94123,-3.203685 39.6543,0.390625 -0.46883,-4.29755 1.75886,-9.690309 7.54101,-16.800782 0.85951,-0.586027 0.97662,-0.273499 0.66407,0.15625 -3.28175,5.03984 -7.61915,11.096964 -7.54102,15.589844 0,0.23442 0.42968,0.19532 0.46875,0.15625 1.05485,-2.07063 2.81413,-5.001508 4.92383,-7.892578 0.5079,-0.31255 0.82035,-0.03916 0.58594,0.390625 l -3.83008,5.46875 1.75781,-0.507812 -1.01563,0.939453 c 0,0 2.50189,1.992122 2.89258,2.382812 0.0781,0.0781 0.70311,-0.195177 0.82032,-1.054687 1.05485,-5.86028 5.89802,-13.245329 21.13476,-18.167969 11.48615,4.02406 21.05875,5.236321 32.66211,5.275391 l 3.98438,14.064453 -3.98438,3.789066 -4.375,7.93164 c 11.95498,20.47193 16.75905,41.21601 -3.79101,46.21679 -17.81526,3.39896 -27.15148,0.27438 -32.69922,-5.74218 -1.14792,1.70274 -2.25094,3.27933 -3.60352,4.14648 2.67131,7.94545 5.32355,15.95159 8.75977,21.7168 5.27426,9.68901 7.18971,17.65875 5.58789,26.68359 -1.28926,-12.81449 -2.8528,-19.72933 -7.46289,-27.07422 -0.50789,-0.82044 -0.93745,-1.71861 -1.28907,-2.65625 l -6.43945,-18.24609 c -0.7387,0.28186 -1.55743,0.34886 -2.49219,0.13281 -2.96026,10.4915 -4.77247,22.09305 -4.23437,33.66211 0.0391,0.42976 0.0781,0.89838 0.15625,1.32813 2.61759,14.22096 4.68737,25.62924 5.54687,36.09961 l -7.26562,-36.8418 c 0,0 -0.74249,-9.76822 1.17187,-18.20703 1.21695,-5.40468 3.86581,-14.49187 4.3418,-16.11914 -0.51594,-0.14742 -1.06405,-0.37052 -1.65625,-0.70118 0.37899,4.15297 -1.8856,12.32439 -4.59961,16.46875 -1.95343,12.11126 -0.70379,23.28574 3.59375,44.73438 0.97671,0.97672 1.0548,1.71866 0.35156,2.26562 0,0 2.46115,16.76148 1.09375,18.36329 -2.77386,3.16455 -16.48654,6.3674 -27.73828,4.96093 14.49443,-0.97672 21.33131,-1.67912 25.98047,-5.27343 0.58603,-0.42975 0.85935,-1.13466 0.78125,-1.87696 l -1.67969,-16.48633 c -0.0781,-0.50789 -0.31243,-0.97652 -0.74218,-1.25 l -2.57813,-1.75781 c -0.39068,-0.27348 -0.93946,0.11712 -0.82226,0.58594 l 0.66601,4.0625 c 0.19534,1.01578 0.11723,2.11117 -0.15625,3.12695 l -2.3457,8.32032 c -0.0391,0.23441 -3e-5,0.50778 0.15625,0.70312 1.32833,1.83622 1.79693,3.63448 1.44531,5.4707 -0.0391,0.23441 -0.39065,0.23441 -0.46875,0 -0.78137,-3.04735 -1.83572,-5.54869 -3.20313,-6.48632 -0.31254,-0.23443 -0.74213,-0.19534 -1.05468,0 l -2.30469,1.52343 c -0.1172,0.0781 -0.15623,0.27342 -0.0781,0.39063 1.05485,1.64088 1.09384,3.5564 0.54688,5.11914 -0.0781,0.23438 -0.42969,0.19535 -0.42969,-0.0391 -0.23441,-3.16455 0.19578,-4.6501 -2.77343,-6.56446 -0.27348,-0.19538 -0.66403,-0.15628 -0.89844,0.0781 l -1.875,1.79687 c 0.7423,1.83623 -0.08,5.78323 -0.23633,5.58789 -0.19538,-0.27348 -0.27344,-3.98616 -0.27344,-5.11914 0,-0.19535 -0.0781,-0.3906 -0.23437,-0.54687 l -2.14844,-2.07032 c -0.1172,-0.15627 -0.35153,-0.15627 -0.50781,0 l -1.99219,1.75782 c -0.27348,0.27348 -0.42969,0.62495 -0.42969,0.97656 l 0.15625,5.11914 c -0.5079,1.79716 -0.82035,-1.4858 -0.78125,-4.88476 -0.7423,-1e-5 -1.48426,-1.05446 -2.22656,-2.57813 -0.19535,-0.27344 -0.5859,-0.27346 -0.82031,-0.0781 l -2.53907,2.1875 0.70313,4.3379 c -0.0781,0.54699 -0.70308,0.62509 -1.01563,0.0391 0.27348,0.42975 -0.86114,-7.1113 -2.07226,-7.30664 -0.78137,-0.15628 -2.57802,0.46863 -3.28125,1.25 -0.70323,0.78137 -0.66413,2.89236 -0.27344,4.25976 0.19534,0.70323 1.13286,1.75776 0.82031,2.10938 -1.09392,1.17205 -2.03131,-2.7358 -1.64062,-6.0957 l -0.82031,-1.83594 c -0.19534,-0.46885 -0.78119,-0.66411 -1.21094,-0.42969 -4.80036,2.65385 -4.49253,6.24355 -1.80469,9.21094 6.69591,0.29303 14.85352,0.16601 14.85352,0.16601 -11.36895,0.7423 -23.05052,1.44574 -24.8086,-1.28906 -4.33661,-6.0947 -6.44721,-10.07945 -6.75976,-14.14258 -0.23441,-3.43803 3.16584,-19.37815 4.25976,-24.26172 0.1953,-0.93765 0.2344,-1.91585 0.0781,-2.89257 l -5.56446,-34.95704 c -0.0849,0.17952 -0.1736,0.35985 -0.25781,0.53907 -2.81293,3.75059 -5.70294,-0.23574 -6.91406,-4.02539 -6.2119,14.4163 -6.01645,28.71693 -0.66406,40.39843 0.5079,1.48461 0.78133,2.03134 0.23437,1.52344 -6.7198,-13.20517 -7.61846,-28.48192 0.625,-44.26562 2.57853,-5.82122 3.00803,-11.13387 1.64063,-16.95508 -0.0781,-0.31255 -0.50779,-0.35158 -0.625,-0.0391 -2.07063,8.79042 -8.3995,18.79118 -26.839846,17.69726 0,0 -29.692132,0.74368 -25.003906,-21.44726 3.086415,-17.46365 9.726562,-26.33204 9.726562,-26.33204 l -3.515625,-6.56445 c -0.117206,-0.23441 -0.273407,-0.42966 -0.46875,-0.58594 l -4.414063,-4.335934 3.945313,-13.988281 c 10.861059,0.35162 22.113465,-2.030743 33.521484,-5.351563 z"
       style="fill:#c9c7c7"
       inkscape:connector-curvature="0"
       sodipodi:nodetypes="cscccccccccccccccccccccccscccccccccccsccccccccccccscccccccccccccccccccccccccccccccccccccccccccccccccscccccccccccccscccccccccccccccccccccccccccc" /><path
       inkscape:connector-curvature="0"
       style="fill:#c9c7c7"
       d="m 124.47266,216.02734 c -0.13674,-0.0146 -0.2832,0.0449 -0.36133,0.18164 -1.05485,1.79716 -3.75006,6.91534 -3.35938,11.29102 1.52367,6.2119 4.21851,9.572 5.82032,11.29102 0.5683,0.60989 3.71499,0.9497 7.48632,1.14648 -2.32002,-2.753 -1.86573,-5.06774 -0.64843,-7.00781 l -5.04102,-6.05469 -3.59375,-10.58789 c -0.0391,-0.15626 -0.16599,-0.24512 -0.30273,-0.25977 z"
       id="path4799"
       sodipodi:nodetypes="cccsccccc" /><path
       sodipodi:nodetypes="ccccccccccccccccccccccccccccccccccc"
       inkscape:connector-curvature="0"
       style="fill:#c9c7c7"
       d="m 118.27734,118.92969 c -0.18709,0.0285 -0.35206,0.15182 -0.41796,0.34961 l -4.45313,9.33789 c -0.1172,3.67244 -0.3904,7.11109 -1.79687,8.63476 3.47709,6.05563 3.32072,13.04766 0.70312,20.62696 0,0 1.40613,3.20509 2.1875,3.04882 1.32833,0.27348 2.81223,-14.3783 17.15039,-18.24609 2.93014,-1.01578 17.54356,1.32788 26.37305,2.92969 l -24.26172,-0.3125 c -0.85951,0 -1.75964,0.19526 -2.54102,0.58594 -3.01752,1.5613 -5.37825,3.51718 -7.32031,5.69921 3.08257,-0.0763 5.75752,0.2967 7.67188,1.68555 9.41552,-2.93014 20.58992,-1.8364 32.62304,1.13281 1.4846,-2.07064 4.10283,-2.5001 8.55664,-1.79687 l 0.26953,0.16992 c -2.62362,-2.31454 -5.52023,-5.16022 -8.51367,-8.17969 -1.13299,-1.01578 -2.61695,-1.56249 -4.14062,-1.60156 l -13.04883,-0.19531 c 0,0 12.34503,-3.16419 16.68164,-2.42188 4.33661,0.78137 12.30624,12.61892 14.8457,14.10352 2.89107,0.74231 4.37666,-0.89811 6.29102,-3.04688 -0.23441,-0.54696 -5.97833,-9.33824 -7.22852,-19.65234 -0.6251,-5.31332 -3.3983,-9.1424 -4.25781,-10.27539 -0.11721,-0.1172 -0.39062,-0.15627 -0.42969,0 -0.27348,1.28926 -4.53197,0.93941 -12.50195,1.21289 -0.42976,0 -0.85933,0.15621 -1.17187,0.42969 -4.10221,3.39897 -8.75267,7.22683 -16.80079,5.46875 -5.27426,-1.67995 -11.7207,-6.44727 -11.7207,-6.44727 -0.39068,-0.19535 -0.85932,-0.23248 -1.25,-0.0762 l -4.02344,1.71875 c -0.27348,0.1172 -0.54684,0.0781 -0.78125,-0.0781 l -6.25195,-4.68946 c -0.0781,-0.0586 -0.16394,-0.0948 -0.25,-0.11133 -0.0645,-0.0124 -0.12904,-0.0134 -0.19141,-0.004 z"
       id="path4801" /><path
       sodipodi:nodetypes="ccccccccccccccccccscccccccccccccccccccccccccccc"
       inkscape:connector-curvature="0"
       style="fill:#c9c7c7"
       d="m 158.15625,179.31641 c -0.27516,-0.0143 -0.53024,0.002 -0.75977,0.0508 -3.71152,1.95342 -6.83572,3.94695 -8.20312,5.93945 -0.6251,0.93761 -1.79671,1.32818 -2.89063,0.97656 -3.86779,-1.25019 -11.76133,-3.71292 -14.22265,-3.47851 -3.78965,0.31255 -7.26541,3.82979 -8.63281,5.66601 -0.46882,0.66416 -0.70314,1.44519 -0.58594,2.26563 0.6251,5.00077 1.48447,9.37651 0.89844,12.26758 l -2.85157,14.61132 c -0.0391,0.15631 0.15628,0.23439 0.23438,0.11719 l 3.63281,-4.84375 c 0.23441,-0.27348 0.66405,-0.23442 0.78125,0.11719 l 3.86719,11.75976 c 0.39069,1.09392 0.97643,2.10925 1.79687,2.92969 l 2.81446,2.85157 3.86718,-2.14844 c 0.31255,-0.19534 0.7031,-0.0391 0.85938,0.27344 l 0.70312,1.52343 c 0.19534,0.42972 0.664,0.62502 1.13282,0.46875 l 2.57812,-0.85937 c 0.50789,-0.19534 1.09371,0.039 1.36719,0.54687 l 1.0957,2.07032 2.85156,-2.77344 c 0.19534,-0.15625 0.42966,-0.15629 0.58594,0.0391 l 1.67969,2.22656 c 0.19535,0.23438 0.58589,0.31254 0.85937,0.0781 l 2.89063,-2.42188 c 0.15628,-0.11717 0.3906,-0.11722 0.54687,0.0391 l 1.83594,1.91406 c 0.19534,0.1953 0.50778,0.23439 0.74219,0.0781 l 1.95508,-1.36718 c 0.42975,-0.27351 0.97649,-0.23442 1.36718,0.0781 l 1.25,1.05469 c 0.31256,0.23438 0.74214,0.27346 1.09376,0.0781 l 3.08593,-1.79687 0.9375,0.70312 2.53907,-7.03125 c 0.11719,-0.35162 0.15622,-0.70502 0.0781,-1.05664 l -1.91406,-8.51562 c -0.15628,-0.46883 0.35149,-0.89848 0.78125,-0.66407 0,0 2.89234,1.91401 4.45508,2.26563 0.46882,0.0781 0.85935,-0.31242 0.78125,-0.82031 -1.83622,-5.97749 -2.65625,-18.8711 -2.65625,-18.8711 0,0 -3.36121,-7.73576 -4.10352,-11.36914 -0.1172,-0.46882 -0.39055,-0.89839 -0.82031,-1.17187 -3.38431,-2.11947 -6.37858,-3.70037 -8.30469,-3.80078 z"
       id="path4803" /><path
       sodipodi:nodetypes="sccsccs"
       inkscape:connector-curvature="0"
       style="fill:#c9c7c7"
       d="m 171.59961,153.97266 c -1.51391,-0.10744 -3.18539,0.33197 -4.20117,0.66406 -0.50789,0.19534 -0.82034,0.78116 -0.66406,1.32812 1.79716,5.39146 2.14843,9.72758 2.14843,15.78321 0,0.35161 0.46873,0.46879 0.66407,0.19531 1.67994,-2.38318 5.86141,-9.02442 5.31445,-15.35352 -0.39069,-1.85576 -1.74781,-2.50974 -3.26172,-2.61718 z"
       id="path4805" /><path
       sodipodi:nodetypes="ccccccccccccccccccscccsccc"
       inkscape:connector-curvature="0"
       style="fill:#c9c7c7"
       d="m 145.17188,152.99609 c -4.96811,0.0505 -9.87091,0.68341 -14.26368,1.91407 -0.70324,0.19534 -1.24998,0.74207 -1.40625,1.44531 l -0.35156,3.28125 c -0.0391,0.23442 0.15622,0.4707 0.39063,0.4707 3.90685,0.19534 5.66596,-0.27525 6.01757,-1.13476 l 3.28125,2.15039 c 0.35162,0.27348 0.85931,0.27348 1.25,0 l 1.95313,-1.29102 c 0.27348,-0.19531 0.66401,-0.23439 0.97656,-0.11719 l 3.00977,1.21289 c 0.50789,0.19531 1.05461,0.19535 1.52343,-0.0391 l 2.5,-1.17383 c 0.35162,-0.15624 0.82026,-0.15627 1.17188,0.0391 l 3.00781,1.60351 c 0.39069,0.23441 0.89839,0.1563 1.21094,-0.19531 l 2.6582,-2.69727 c 0.0781,-0.0391 0.15628,-0.0391 0.23438,0 l 2.22656,1.87696 c 0.56359,0.4751 1.44522,0.39068 2.07031,-0.0391 l 2.65625,-1.87695 c 0.39068,-0.23441 0.46879,-0.74212 0.23438,-1.13281 l -0.23438,-0.35156 c -0.39069,-0.58602 -0.9374,-1.05466 -1.5625,-1.28907 -5.66982,-1.82401 -12.16712,-2.72123 -18.55468,-2.65625 z"
       id="path4807" /><path
       sodipodi:nodetypes="ccccccccc"
       inkscape:connector-curvature="0"
       style="fill:#c9c7c7"
       d="m 123.87695,152.83984 c -0.41972,-0.024 -0.82095,0.0557 -1.1875,0.20508 -0.60069,0.77251 -1.16022,1.56645 -1.68359,2.37696 -0.35209,2.32516 -0.22084,5.84584 0.37109,8.43554 0.78137,3.35989 2.92954,6.40605 3.90625,7.65625 0.19535,0.23441 0.97653,0.58614 1.01563,-0.70312 0.15627,-6.36817 0.70293,-11.68095 1.99219,-16.17383 0.0391,-0.50789 -0.31243,-1.32809 -0.82032,-1.36719 z"
       id="path4809" /><path
       class="st3"
       d="m 154.31096,104.27748 c -0.31255,-0.0391 -0.42975,-0.46882 -0.15627,-0.6251 1.21112,-0.7423 3.78965,-1.87529 7.14954,-0.78137 3.90686,1.25019 5.82122,6.17283 6.36818,7.81371 0.0391,0.19534 -0.15628,0.31255 -0.31255,0.19534 -4.41475,-3.16455 -8.63415,-6.01655 -13.0489,-6.60258 z"
       id="path4256"
       inkscape:connector-curvature="0"
       style="fill:#ffffff" /><path
       class="st3"
       d="m 151.61523,101.38641 -3.08641,1.91435 c -0.39069,0.23442 -0.82044,0.39069 -1.28927,0.39069 -12.541,0.82044 -20.58913,4.45382 -25.31642,10.19689 -0.11721,0.11721 -0.31255,0.0391 -0.31255,-0.1172 -0.11721,-2.46132 1.13299,-5.58681 5.31332,-10.1969 0.27348,-0.27348 0.58603,-0.50789 0.93765,-0.66416 l 3.55524,-1.56274 c 0.54696,-0.23441 1.17205,-0.39069 1.79715,-0.39069 2.96921,0 12.4238,0 18.28409,0 0.23441,0.0391 0.31254,0.31255 0.1172,0.42976 z"
       id="path4258"
       inkscape:connector-curvature="0"
       style="fill:#ffffff" /></g><metadata
     id="metadata4901"><rdf:RDF><cc:Work
         rdf:about=""><dc:title /><dc:format>image/svg+xml</dc:format><dc:type
           rdf:resource="http://purl.org/dc/dcmitype/StillImage" /></cc:Work></rdf:RDF></metadata></svg>