  0
SECTION
  2
HEADER
  9
$ACADVER
  1
AC1014
  9
$HANDSEED
  5
FFFF
  9
$MEASUREMENT
 70
     1
  0
ENDSEC
  0
SECTION
  2
TABLES
  0
TABLE
  2
VPORT
  5
8
330
0
100
AcDbSymbolTable
 70
     4
  0
VPORT
  5
2E
330
8
100
AcDbSymbolTableRecord
100
AcDbViewportTableRecord
  2
*ACTIVE
 70
     0
 10
0.0
 20
0.0
 11
1.0
 21
1.0
 12
210.0
 22
148.5
 13
0.0
 23
0.0
 14
10.0
 24
10.0
 15
10.0
 25
10.0
 16
0.0
 26
0.0
 36
1.0
 17
0.0
 27
0.0
 37
0.0
 40
341.0
 41
1.24
 42
50.0
 43
0.0
 44
0.0
 50
0.0
 51
0.0
 71
     0
 72
   100
 73
     1
 74
     3
 75
     0
 76
     0
 77
     0
 78
     0
  0
ENDTAB
  0
TABLE
  2
LTYPE
  5
5
330
0
100
AcDbSymbolTable
 70
     1
  0
LTYPE
  5
14
330
5
100
AcDbSymbolTableRecord
100
AcDbLinetypeTableRecord
  2
BYBLOCK
 70
     0
  3

 72
    65
 73
     0
 40
0.0
  0
LTYPE
  5
15
330
5
100
AcDbSymbolTableRecord
100
AcDbLinetypeTableRecord
  2
BYLAYER
 70
     0
  3

 72
    65
 73
     0
 40
0.0
  0
LTYPE
  5
16
330
5
100
AcDbSymbolTableRecord
100
AcDbLinetypeTableRecord
  2
CONTINUOUS
 70
     0
  3
Solid line
 72
    65
 73
     0
 40
0.0
  0
ENDTAB
  0
TABLE
  2
LAYER
  5
2
100
AcDbSymbolTable
 70
1
  0
LAYER
  5
50
100
AcDbSymbolTableRecord
100
AcDbLayerTableRecord
  2
0
 70
0
  6
CONTINUOUS
  0
ENDTAB
  0
TABLE
  2
STYLE
  5
3
330
0
100
AcDbSymbolTable
 70
     1
  0
STYLE
  5
11
330
3
100
AcDbSymbolTableRecord
100
AcDbTextStyleTableRecord
  2
STANDARD
 70
     0
 40
0.0
 41
1.0
 50
0.0
 71
     0
 42
2.5
  3
txt
  4

  0
ENDTAB
  0
TABLE
  2
VIEW
  5
6
330
0
100
AcDbSymbolTable
 70
     0
  0
ENDTAB
  0
TABLE
  2
UCS
  5
7
330
0
100
AcDbSymbolTable
 70
     0
  0
ENDTAB
  0
TABLE
  2
APPID
  5
9
330
0
100
AcDbSymbolTable
 70
     2
  0
APPID
  5
12
330
9
100
AcDbSymbolTableRecord
100
AcDbRegAppTableRecord
  2
ACAD
 70
     0
  0
ENDTAB
  0
TABLE
  2
DIMSTYLE
  5
A
330
0
100
AcDbSymbolTable
 70
     1
  0
DIMSTYLE
105
27
330
A
100
AcDbSymbolTableRecord
100
AcDbDimStyleTableRecord
  2
ISO-25
 70
     0
  3

  4

  5

  6

  7

 40
1.0
 41
2.5
 42
0.625
 43
3.75
 44
1.25
 45
0.0
 46
0.0
 47
0.0
 48
0.0
140
2.5
141
2.5
142
0.0
143
0.03937007874016
144
1.0
145
0.0
146
1.0
147
0.625
 71
     0
 72
     0
 73
     0
 74
     0
 75
     0
 76
     0
 77
     1
 78
     8
170
     0
171
     3
172
     1
173
     0
174
     0
175
     0
176
     0
177
     0
178
     0
270
     2
271
     2
272
     2
273
     2
274
     3
340
11
275
     0
280
     0
281
     0
282
     0
283
     0
284
     8
285
     0
286
     0
287
     3
288
     0
  0
ENDTAB
  0
TABLE
  2
BLOCK_RECORD
  5
1
330
0
100
AcDbSymbolTable
 70
     1
  0
BLOCK_RECORD
  5
1F
330
1
100
AcDbSymbolTableRecord
100
AcDbBlockTableRecord
  2
*MODEL_SPACE
  0
BLOCK_RECORD
  5
1B
330
1
100
AcDbSymbolTableRecord
100
AcDbBlockTableRecord
  2
*PAPER_SPACE
  0
ENDTAB
  0
ENDSEC
  0
SECTION
  2
BLOCKS
  0
BLOCK
  5
20
330
1F
100
AcDbEntity
  8
0
100
AcDbBlockBegin
  2
*MODEL_SPACE
 70
     0
 10
0.0
 20
0.0
 30
0.0
  3
*MODEL_SPACE
  1

  0
ENDBLK
  5
21
330
1F
100
AcDbEntity
  8
0
100
AcDbBlockEnd
  0
BLOCK
  5
1C
330
1B
100
AcDbEntity
 67
     1
  8
0
100
AcDbBlockBegin
  2
*PAPER_SPACE
  1

  0
ENDBLK
  5
1D
330
1B
100
AcDbEntity
 67
     1
  8
0
100
AcDbBlockEnd
  0
ENDSEC
  0
SECTION
  2
ENTITIES
  0
LWPOLYLINE
  5
100
100
AcDbEntity
  8
0
 62
7
100
AcDbPolyline
 90
99
 70
0
 10
59.526678
 20
72.865183
 30
0.0
 10
63.859901
 20
75.873907
 30
0.0
 10
66.085438
 20
77.205126
 30
0.0
 10
67.564643
 20
77.848942
 30
0.0
 10
74.896943
 20
72.666715
 30
0.0
 10
75.629832
 20
68.262683
 30
0.0
 10
75.690815
 20
64.302104
 30
0.0
 10
75.482921
 20
62.483264
 30
0.0
 10
75.123317
 20
60.769473
 30
0.0
 10
74.617456
 20
59.158791
 30
0.0
 10
73.970758
 20
57.649282
 30
0.0
 10
74.511033
 20
56.469499
 30
0.0
 10
73.871523
 20
55.212533
 30
0.0
 10
81.005355
 20
34.252078
 30
0.0
 10
79.625207
 20
28.745962
 30
0.0
 10
78.134456
 20
23.942754
 30
0.0
 10
77.310460
 20
21.900357
 30
0.0
 10
76.414221
 20
20.148429
 30
0.0
 10
75.430911
 20
18.725210
 30
0.0
 10
74.345642
 20
17.668951
 30
0.0
 10
71.236307
 20
21.153174
 30
0.0
 10
71.015787
 20
21.153174
 30
0.0
 10
67.860968
 20
17.010149
 30
0.0
 10
64.929425
 20
13.677536
 30
0.0
 10
64.697878
 20
13.688571
 30
0.0
 10
62.448573
 20
16.797909
 30
0.0
 10
62.204623
 20
16.949516
 30
0.0
 10
61.919324
 20
16.886118
 30
0.0
 10
59.795207
 20
15.291243
 30
0.0
 10
58.000434
 20
13.678408
 30
0.0
 10
56.517072
 20
12.042055
 30
0.0
 10
55.327144
 20
10.376634
 30
0.0
 10
54.412690
 20
8.676581
 30
0.0
 10
53.755761
 20
6.936345
 30
0.0
 10
53.338394
 20
5.150366
 30
0.0
 10
53.142617
 20
3.313091
 30
0.0
 10
50.442687
 20
1.801515
 30
0.0
 10
47.619099
 20
0.763499
 30
0.0
 10
44.746672
 20
0.172294
 30
0.0
 10
41.900215
 20
0.001151
 30
0.0
 10
39.154543
 20
0.223331
 30
0.0
 10
36.584469
 20
0.812083
 30
0.0
 10
34.264806
 20
1.740656
 30
0.0
 10
32.270370
 20
2.982313
 30
0.0
 10
31.814169
 20
3.391654
 30
0.0
 10
31.531625
 20
3.941575
 30
0.0
 10
30.100829
 20
7.513314
 30
0.0
 10
28.172826
 20
10.940339
 30
0.0
 10
26.960030
 20
12.594412
 30
0.0
 10
25.548117
 20
14.206104
 30
0.0
 10
23.912154
 20
15.773349
 30
0.0
 10
22.027201
 20
17.294078
 30
0.0
 10
22.071305
 20
14.173716
 30
0.0
 10
19.117022
 20
15.428270
 30
0.0
 10
17.832923
 20
16.229336
 30
0.0
 10
16.679584
 20
17.147983
 30
0.0
 10
15.658557
 20
18.185508
 30
0.0
 10
14.771394
 20
19.343195
 30
0.0
 10
14.019644
 20
20.622342
 30
0.0
 10
13.404857
 20
22.024238
 30
0.0
 10
11.309914
 20
25.089471
 30
0.0
 10
11.100420
 20
25.201110
 30
0.0
 10
10.890926
 20
25.089471
 30
0.0
 10
8.674697
 20
21.936030
 30
0.0
 10
5.326578
 20
25.079294
 30
0.0
 10
2.513911
 20
28.194660
 30
0.0
 10
1.426599
 20
29.735740
 30
0.0
 10
0.615025
 20
31.262478
 30
0.0
 10
0.126478
 20
32.772418
 30
0.0
 10
0.008249
 20
34.263104
 30
0.0
 10
0.803844
 20
37.229963
 30
0.0
 10
2.635197
 20
42.211484
 30
0.0
 10
7.461835
 20
54.451738
 30
0.0
 10
6.603184
 20
56.148366
 30
0.0
 10
5.918193
 20
58.299817
 30
0.0
 10
6.535650
 20
59.226003
 30
0.0
 10
5.868920
 20
62.709362
 30
0.0
 10
5.642543
 20
66.080049
 30
0.0
 10
5.862719
 20
69.337030
 30
0.0
 10
6.535650
 20
72.479273
 30
0.0
 10
13.504091
 20
77.683552
 30
0.0
 10
17.458296
 20
75.264720
 30
0.0
 10
20.726131
 20
72.887235
 30
0.0
 10
21.704690
 20
72.340069
 30
0.0
 10
22.152622
 20
72.315090
 30
0.0
 10
22.567476
 20
72.479274
 30
0.0
 10
23.553227
 20
73.309347
 30
0.0
 10
25.450433
 20
74.406242
 30
0.0
 10
30.878334
 20
76.929649
 30
0.0
 10
36.649420
 20
79.107804
 30
0.0
 10
38.975609
 20
79.773134
 30
0.0
 10
40.561932
 20
79.999016
 30
0.0
 10
42.277555
 20
79.660526
 30
0.0
 10
44.688074
 20
78.827158
 30
0.0
 10
50.507398
 20
76.321840
 30
0.0
 10
58.534337
 20
72.479274
 30
0.0
 10
58.873387
 20
72.494435
 30
0.0
 10
59.526678
 20
72.865185
 30
0.0
 10
59.526678
 20
72.865185
 30
0.0
  0
LWPOLYLINE
  5
101
100
AcDbEntity
  8
0
 62
7
100
AcDbPolyline
 90
21
 70
0
 10
22.082350
 20
50.570579
 30
0.0
 10
22.703253
 20
50.032542
 30
0.0
 10
23.683879
 20
49.350824
 30
0.0
 10
24.991152
 20
48.683578
 30
0.0
 10
25.756943
 20
48.404804
 30
0.0
 10
26.591992
 20
48.188956
 30
0.0
 10
28.154240
 20
47.931223
 30
0.0
 10
29.414651
 20
47.822342
 30
0.0
 10
30.914193
 20
47.869207
 30
0.0
 10
30.994130
 20
47.940879
 30
0.0
 10
30.958296
 20
48.045621
 30
0.0
 10
30.472462
 20
48.400004
 30
0.0
 10
29.651712
 20
48.896002
 30
0.0
 10
28.483642
 20
49.451954
 30
0.0
 10
26.955851
 20
49.986201
 30
0.0
 10
25.528842
 20
50.327144
 30
0.0
 10
24.156620
 20
50.571956
 30
0.0
 10
22.159532
 20
50.769046
 30
0.0
 10
22.054784
 20
50.707021
 30
0.0
 10
22.082350
 20
50.570579
 30
0.0
 10
22.082350
 20
50.570579
 30
0.0
  0
LWPOLYLINE
  5
102
100
AcDbEntity
  8
0
 62
7
100
AcDbPolyline
 90
21
 70
0
 10
59.791335
 20
49.798757
 30
0.0
 10
57.798383
 20
49.601668
 30
0.0
 10
56.423576
 20
49.356856
 30
0.0
 10
54.995019
 20
49.015910
 30
0.0
 10
53.467227
 20
48.481665
 30
0.0
 10
52.299158
 20
47.925712
 30
0.0
 10
51.478409
 20
47.429714
 30
0.0
 10
50.992574
 20
47.075333
 30
0.0
 10
50.956741
 20
46.970583
 30
0.0
 10
51.036680
 20
46.898916
 30
0.0
 10
52.540352
 20
46.852053
 30
0.0
 10
53.798179
 20
46.960934
 30
0.0
 10
55.358877
 20
47.218668
 30
0.0
 10
56.193925
 20
47.434516
 30
0.0
 10
56.959717
 20
47.713289
 30
0.0
 10
58.266989
 20
48.380536
 30
0.0
 10
59.247615
 20
49.062254
 30
0.0
 10
59.868517
 20
49.600290
 30
0.0
 10
59.904352
 20
49.720197
 30
0.0
 10
59.791335
 20
49.798757
 30
0.0
 10
59.791335
 20
49.798757
 30
0.0
  0
ENDSEC
  0
SECTION
  2
OBJECTS
  0
DICTIONARY
  5
C
330
0
100
AcDbDictionary
  3
ACAD_GROUP
350
D
  3
ACAD_MLINESTYLE
350
17
  0
DICTIONARY
  5
D
330
C
100
AcDbDictionary
  0
DICTIONARY
  5
1A
330
C
100
AcDbDictionary
  0
DICTIONARY
  5
17
330
C
100
AcDbDictionary
  3
STANDARD
350
18
  0
DICTIONARY
  5
19
330
C
100
AcDbDictionary
  0
ENDSEC
  0
EOF
